<svg xmlns="http://www.w3.org/2000/svg" version="1.1" xmlns:xlink="http://www.w3.org/1999/xlink" xmlns:svgjs="http://svgjs.dev/svgjs" viewBox="0 0 800 800"><defs><linearGradient x1="50%" y1="0%" x2="50%" y2="100%" id="ffflurry-grad" gradientTransform="rotate(270)"><stop stop-color="hsl(60, 97%, 79%)" stop-opacity="1" offset="0%"></stop><stop stop-color="hsl(1.4, 100%, 67%)" stop-opacity="1" offset="45%"></stop><stop stop-color="hsl(167, 52%, 78%)" stop-opacity="1" offset="100%"></stop></linearGradient></defs><rect width="100%" height="100%" fill="hsl(60, 97%, 79%)"></rect><g fill="hsl(55, 69%, 50%)"><rect width="393" height="3" x="285.5" y="733.5" rx="1.5" transform="rotate(45, 482, 735)" opacity="0.35"></rect><rect width="512" height="3" x="382" y="312.5" rx="1.5" transform="rotate(45, 638, 314)" opacity="0.09"></rect><rect width="595" height="3" x="339.5" y="588.5" rx="1.5" transform="rotate(45, 637, 590)" opacity="0.21"></rect><rect width="446" height="3" x="131" y="537.5" rx="1.5" transform="rotate(45, 354, 539)" opacity="0.27"></rect><rect width="57" height="3" x="188.5" y="538.5" rx="1.5" transform="rotate(45, 217, 540)" opacity="0.73"></rect><rect width="270" height="3" x="341" y="351.5" rx="1.5" transform="rotate(45, 476, 353)" opacity="0.72"></rect><rect width="351" height="3" x="18.5" y="768.5" rx="1.5" transform="rotate(45, 194, 770)" opacity="0.92"></rect><rect width="467" height="3" x="245.5" y="184.5" rx="1.5" transform="rotate(45, 479, 186)" opacity="0.48"></rect><rect width="99" height="3" x="-7.5" y="286.5" rx="1.5" transform="rotate(45, 42, 288)" opacity="0.93"></rect><rect width="364" height="3" x="78" y="364.5" rx="1.5" transform="rotate(45, 260, 366)" opacity="0.50"></rect><rect width="132" height="3" x="-15" y="193.5" rx="1.5" transform="rotate(45, 51, 195)" opacity="0.67"></rect><rect width="298" height="3" x="248" y="414.5" rx="1.5" transform="rotate(45, 397, 416)" opacity="0.12"></rect><rect width="54" height="3" x="9" y="384.5" rx="1.5" transform="rotate(45, 36, 386)" opacity="0.59"></rect><rect width="328" height="3" x="202" y="770.5" rx="1.5" transform="rotate(45, 366, 772)" opacity="0.85"></rect><rect width="365" height="3" x="514.5" y="87.5" rx="1.5" transform="rotate(45, 697, 89)" opacity="0.38"></rect><rect width="324" height="3" x="138" y="751.5" rx="1.5" transform="rotate(45, 300, 753)" opacity="0.94"></rect><rect width="304" height="3" x="217" y="332.5" rx="1.5" transform="rotate(45, 369, 334)" opacity="0.25"></rect><rect width="241" height="3" x="444.5" y="551.5" rx="1.5" transform="rotate(45, 565, 553)" opacity="0.28"></rect><rect width="231" height="3" x="153.5" y="145.5" rx="1.5" transform="rotate(45, 269, 147)" opacity="0.44"></rect><rect width="402" height="3" x="8" y="607.5" rx="1.5" transform="rotate(45, 209, 609)" opacity="0.91"></rect><rect width="203" height="3" x="-0.5" y="326.5" rx="1.5" transform="rotate(45, 101, 328)" opacity="0.18"></rect><rect width="88" height="3" x="311" y="262.5" rx="1.5" transform="rotate(45, 355, 264)" opacity="0.68"></rect><rect width="89" height="3" x="153.5" y="93.5" rx="1.5" transform="rotate(45, 198, 95)" opacity="0.28"></rect><rect width="387" height="3" x="365.5" y="196.5" rx="1.5" transform="rotate(45, 559, 198)" opacity="0.48"></rect><rect width="472" height="3" x="-202" y="65.5" rx="1.5" transform="rotate(45, 34, 67)" opacity="0.26"></rect><rect width="289" height="3" x="265.5" y="140.5" rx="1.5" transform="rotate(45, 410, 142)" opacity="0.73"></rect><rect width="231" height="3" x="0.5" y="526.5" rx="1.5" transform="rotate(45, 116, 528)" opacity="0.45"></rect><rect width="508" height="3" x="427" y="257.5" rx="1.5" transform="rotate(45, 681, 259)" opacity="0.62"></rect><rect width="340" height="3" x="477" y="198.5" rx="1.5" transform="rotate(45, 647, 200)" opacity="0.89"></rect><rect width="482" height="3" x="-174" y="636.5" rx="1.5" transform="rotate(45, 67, 638)" opacity="0.20"></rect><rect width="587" height="3" x="-144.5" y="696.5" rx="1.5" transform="rotate(45, 149, 698)" opacity="0.13"></rect><rect width="453" height="3" x="183.5" y="734.5" rx="1.5" transform="rotate(45, 410, 736)" opacity="0.22"></rect><rect width="229" height="3" x="609.5" y="167.5" rx="1.5" transform="rotate(45, 724, 169)" opacity="0.91"></rect><rect width="296" height="3" x="320" y="474.5" rx="1.5" transform="rotate(45, 468, 476)" opacity="0.38"></rect><rect width="404" height="3" x="562" y="420.5" rx="1.5" transform="rotate(45, 764, 422)" opacity="0.66"></rect><rect width="747" height="3" x="280.5" y="727.5" rx="1.5" transform="rotate(45, 654, 729)" opacity="0.17"></rect><rect width="246" height="3" x="279" y="627.5" rx="1.5" transform="rotate(45, 402, 629)" opacity="0.67"></rect><rect width="255" height="3" x="378.5" y="410.5" rx="1.5" transform="rotate(45, 506, 412)" opacity="0.79"></rect><rect width="263" height="3" x="8.5" y="26.5" rx="1.5" transform="rotate(45, 140, 28)" opacity="0.47"></rect><rect width="342" height="3" x="89" y="225.5" rx="1.5" transform="rotate(45, 260, 227)" opacity="0.56"></rect><rect width="214" height="3" x="270" y="29.5" rx="1.5" transform="rotate(45, 377, 31)" opacity="0.35"></rect><rect width="461" height="3" x="355.5" y="373.5" rx="1.5" transform="rotate(45, 586, 375)" opacity="0.47"></rect><rect width="461" height="3" x="43.5" y="299.5" rx="1.5" transform="rotate(45, 274, 301)" opacity="0.37"></rect><rect width="562" height="3" x="444" y="512.5" rx="1.5" transform="rotate(45, 725, 514)" opacity="0.17"></rect><rect width="111" height="3" x="0.5" y="743.5" rx="1.5" transform="rotate(45, 56, 745)" opacity="0.38"></rect><rect width="93" height="3" x="514.5" y="286.5" rx="1.5" transform="rotate(45, 561, 288)" opacity="0.24"></rect><rect width="276" height="3" x="177" y="409.5" rx="1.5" transform="rotate(45, 315, 411)" opacity="0.76"></rect><rect width="461" height="3" x="-77.5" y="203.5" rx="1.5" transform="rotate(45, 153, 205)" opacity="0.33"></rect><rect width="43" height="3" x="743.5" y="243.5" rx="1.5" transform="rotate(45, 765, 245)" opacity="0.83"></rect><rect width="256" height="3" x="-22" y="100.5" rx="1.5" transform="rotate(45, 106, 102)" opacity="0.94"></rect><rect width="449" height="3" x="88.5" y="481.5" rx="1.5" transform="rotate(45, 313, 483)" opacity="0.45"></rect><rect width="378" height="3" x="126" y="650.5" rx="1.5" transform="rotate(45, 315, 652)" opacity="0.57"></rect><rect width="528" height="3" x="-26" y="688.5" rx="1.5" transform="rotate(45, 238, 690)" opacity="0.19"></rect><rect width="465" height="3" x="504.5" y="332.5" rx="1.5" transform="rotate(45, 737, 334)" opacity="0.31"></rect><rect width="97" height="3" x="-11.5" y="555.5" rx="1.5" transform="rotate(45, 37, 557)" opacity="0.60"></rect><rect width="96" height="3" x="190" y="438.5" rx="1.5" transform="rotate(45, 238, 440)" opacity="0.29"></rect><rect width="425" height="3" x="542.5" y="729.5" rx="1.5" transform="rotate(45, 755, 731)" opacity="0.57"></rect><rect width="121" height="3" x="298.5" y="97.5" rx="1.5" transform="rotate(45, 359, 99)" opacity="0.12"></rect><rect width="414" height="3" x="563" y="113.5" rx="1.5" transform="rotate(45, 770, 115)" opacity="0.67"></rect><rect width="344" height="3" x="214" y="213.5" rx="1.5" transform="rotate(45, 386, 215)" opacity="0.41"></rect><rect width="523" height="3" x="357.5" y="127.5" rx="1.5" transform="rotate(45, 619, 129)" opacity="0.25"></rect><rect width="407" height="3" x="528.5" y="619.5" rx="1.5" transform="rotate(45, 732, 621)" opacity="0.27"></rect><rect width="386" height="3" x="470" y="26.5" rx="1.5" transform="rotate(45, 663, 28)" opacity="0.23"></rect><rect width="63" height="3" x="639.5" y="412.5" rx="1.5" transform="rotate(45, 671, 414)" opacity="0.66"></rect><rect width="423" height="3" x="356.5" y="750.5" rx="1.5" transform="rotate(45, 568, 752)" opacity="0.84"></rect><rect width="379" height="3" x="278.5" y="279.5" rx="1.5" transform="rotate(45, 468, 281)" opacity="0.33"></rect><rect width="444" height="3" x="369" y="49.5" rx="1.5" transform="rotate(45, 591, 51)" opacity="0.77"></rect><rect width="301" height="3" x="-10.5" y="398.5" rx="1.5" transform="rotate(45, 140, 400)" opacity="0.44"></rect><rect width="284" height="3" x="35" y="466.5" rx="1.5" transform="rotate(45, 177, 468)" opacity="0.27"></rect><rect width="501" height="3" x="-200.5" y="462.5" rx="1.5" transform="rotate(45, 50, 464)" opacity="0.33"></rect><rect width="41" height="3" x="243.5" y="36.5" rx="1.5" transform="rotate(45, 264, 38)" opacity="0.46"></rect><rect width="207" height="3" x="652.5" y="30.5" rx="1.5" transform="rotate(45, 756, 32)" opacity="0.98"></rect><rect width="128" height="3" x="523" y="466.5" rx="1.5" transform="rotate(45, 587, 468)" opacity="0.40"></rect><rect width="236" height="3" x="410" y="644.5" rx="1.5" transform="rotate(45, 528, 646)" opacity="0.16"></rect><rect width="429" height="3" x="-35.5" y="305.5" rx="1.5" transform="rotate(45, 179, 307)" opacity="0.95"></rect><rect width="475" height="3" x="263.5" y="65.5" rx="1.5" transform="rotate(45, 501, 67)" opacity="0.09"></rect><rect width="164" height="3" x="385" y="553.5" rx="1.5" transform="rotate(45, 467, 555)" opacity="0.40"></rect></g></svg>